<svg version="1.1" id="Layer_1" xmlns="http://www.w3.org/2000/svg" xmlns:xlink="http://www.w3.org/1999/xlink" x="0px" y="0px"
	 width="100%" viewBox="0 0 512 512" enable-background="new 0 0 512 512" xml:space="preserve">
<path fill="#AAAAFF" opacity="1.000000" stroke="none" 
	d="
M226.000000,1.000000 
	C246.354233,1.000000 266.708466,1.000000 287.194855,1.340840 
	C288.330627,2.120335 289.295898,2.783326 290.343872,2.962337 
	C299.143982,4.465579 308.101013,5.304957 316.742218,7.434183 
	C338.585358,12.816422 359.455444,20.772451 379.298187,31.580759 
	C396.817383,41.123440 413.296326,52.131012 427.864502,65.632935 
	C438.377502,75.376450 448.132416,86.056862 457.343292,97.057991 
	C470.598236,112.889175 481.252014,130.481735 489.802765,149.339844 
	C500.629944,173.218552 508.476654,197.904053 511.080994,224.113266 
	C511.149139,224.798965 512.335266,225.373581 513.000000,226.000000 
	C513.000000,246.354233 513.000000,266.708466 512.659302,287.194824 
	C511.879913,288.330963 511.234375,289.295502 511.034454,290.344940 
	C508.974182,301.158783 507.535828,312.124023 504.867737,322.782593 
	C498.507721,348.189514 487.970245,371.923309 473.954987,394.016937 
	C460.437622,415.325653 443.998840,434.132263 424.908997,450.748169 
	C406.496521,466.774475 386.305237,479.812103 364.175690,489.993042 
	C340.804291,500.745270 316.493500,508.146271 290.875153,511.079803 
	C290.185852,511.158752 289.622223,512.335266 289.000000,513.000000 
	C267.979095,513.000000 246.958206,513.000000 225.807709,512.665161 
	C224.845535,511.888977 224.059937,511.230682 223.173355,511.038635 
	C209.274200,508.028412 195.193634,505.695923 181.494537,501.961365 
	C163.517715,497.060608 146.638275,489.282532 130.372238,480.109680 
	C114.437149,471.123444 99.355804,460.844604 86.151001,448.323975 
	C74.448936,437.228241 63.574589,425.123474 53.358322,412.627411 
	C36.309525,391.774109 24.071280,368.027374 15.100199,342.697998 
	C9.150968,325.900665 4.709854,308.658356 2.918077,290.831268 
	C2.850943,290.163300 1.664721,289.607880 1.000001,289.000000 
	C1.000000,267.979095 1.000000,246.958206 1.329224,225.817795 
	C2.103602,224.870361 2.770150,224.090271 2.960801,223.207397 
	C5.961503,209.311661 8.269372,195.230347 12.006033,181.538132 
	C17.296354,162.152832 25.885975,144.078400 35.987453,126.678558 
	C52.350555,98.493019 73.815887,74.738220 99.186111,54.628700 
	C117.390083,40.199463 137.471848,28.652887 159.139236,19.912214 
	C179.945801,11.518802 201.233688,5.252421 223.610352,2.924272 
	C224.464401,2.835413 225.205994,1.665928 226.000000,1.000000 
M312.917511,404.394318 
	C312.916870,414.896576 310.334137,418.041260 299.823364,419.963013 
	C296.727875,420.528961 293.510406,421.214966 290.434875,420.927063 
	C285.236389,420.440399 284.649719,423.087677 284.989807,427.181244 
	C285.372528,431.787292 289.094788,430.626068 291.434601,430.640594 
	C319.590088,430.815613 347.747223,430.705231 375.903137,430.839447 
	C379.841034,430.858215 380.057037,428.881195 380.101410,425.853760 
	C380.148010,422.675385 379.518738,421.205414 375.795319,420.910400 
	C370.058044,420.455841 364.271851,419.447876 358.747620,417.843964 
	C354.292328,416.550476 352.012390,413.180908 352.067841,407.978119 
	C352.288086,387.321167 352.152130,366.660522 352.171631,346.001221 
	C352.173004,344.571136 352.366089,343.141235 352.505402,341.224518 
	C356.482300,342.820679 359.923767,344.412598 363.499268,345.601166 
	C380.484344,351.247131 397.974243,351.610657 415.349365,348.811707 
	C448.486023,343.473633 473.241943,326.470764 485.380219,294.236176 
	C494.732178,269.401031 494.827271,243.714371 489.388245,218.009827 
	C485.884247,201.450134 479.376526,185.858200 467.035522,174.056168 
	C435.156769,143.569702 391.839233,140.937424 357.034485,159.630905 
	C355.673615,160.361801 354.296906,161.063156 351.968384,162.279175 
	C351.968384,156.934357 351.968384,152.698105 351.968384,147.884933 
	C328.175171,150.648376 308.242157,163.829102 285.655670,167.210541 
	C284.170563,175.492233 284.505524,176.050583 291.850372,176.788239 
	C296.649231,177.270203 301.463623,177.643372 306.279999,177.893997 
	C312.907562,178.238922 312.916656,178.169586 312.916779,184.999542 
	C312.918030,257.806885 312.917389,330.614227 312.917511,404.394318 
M198.115295,93.417976 
	C178.571976,85.754631 158.718582,82.232224 137.541595,85.768555 
	C98.533318,92.282524 67.299881,111.341751 44.460777,143.189896 
	C21.791252,174.801544 16.954449,211.006592 24.407343,248.183990 
	C33.202030,292.054718 58.879356,323.637054 100.559708,341.180725 
	C120.300591,349.489868 141.210281,350.831299 162.365036,350.031219 
	C187.745651,349.071289 210.284561,340.850159 229.325195,323.850739 
	C236.194550,317.717804 240.599869,310.777496 240.146820,300.492859 
	C239.282303,280.867615 240.093842,261.174011 239.773087,241.515900 
	C239.679245,235.764343 242.168793,232.496368 247.104507,231.195953 
	C252.693344,229.723450 258.469574,228.715225 264.225983,228.216675 
	C267.793701,227.907684 268.165619,226.305740 268.199524,223.445374 
	C268.235107,220.444504 267.590912,218.882248 264.080841,218.894821 
	C234.752869,218.999695 205.424240,218.990067 176.096146,218.902878 
	C172.859055,218.893265 171.682953,219.966278 171.723679,223.230789 
	C171.762680,226.358475 172.269409,227.925980 176.019150,228.234604 
	C181.773010,228.708206 187.556900,229.763824 193.117874,231.322357 
	C197.256958,232.482391 200.150970,235.185013 200.121628,240.378586 
	C199.966293,267.873047 200.005356,295.368988 200.107056,322.863953 
	C200.118790,326.040649 199.084366,327.622559 196.015961,328.616364 
	C183.414673,332.697754 170.593643,335.148285 157.298080,335.204895 
	C122.022980,335.355164 96.790459,318.788788 81.159126,287.977936 
	C68.404221,262.836792 65.960045,235.540253 67.835533,207.692291 
	C69.675705,180.368591 78.412003,155.732162 95.061073,133.855408 
	C117.313591,104.615784 148.327637,92.841499 182.129181,102.122559 
	C202.112640,107.609520 216.202957,120.010544 220.882629,141.026840 
	C221.991730,146.007782 225.235092,144.623703 228.118423,144.710388 
	C231.959122,144.825882 231.120682,141.823486 230.956528,139.687195 
	C229.771484,124.263756 228.467697,108.849480 227.219940,93.430817 
	C227.029053,91.071938 227.186035,88.523346 223.605118,88.849396 
	C220.716660,89.112404 217.176422,87.566605 216.432495,92.575119 
	C215.816086,96.725143 212.716324,97.801743 208.887436,96.734528 
	C205.521179,95.796242 202.191818,94.725639 198.115295,93.417976 
z"/>
<path fill="#000000" opacity="1.000000" stroke="none" 
	d="
M513.000000,225.531342 
	C512.335266,225.373581 511.149139,224.798965 511.080994,224.113266 
	C508.476654,197.904053 500.629944,173.218552 489.802765,149.339844 
	C481.252014,130.481735 470.598236,112.889175 457.343292,97.057991 
	C448.132416,86.056862 438.377502,75.376450 427.864502,65.632935 
	C413.296326,52.131012 396.817383,41.123440 379.298187,31.580759 
	C359.455444,20.772451 338.585358,12.816422 316.742218,7.434183 
	C308.101013,5.304957 299.143982,4.465579 290.343872,2.962337 
	C289.295898,2.783326 288.330627,2.120335 287.663513,1.340840 
	C362.927032,1.000000 437.854095,1.000000 513.000000,1.000000 
	C513.000000,75.687416 513.000000,150.375046 513.000000,225.531342 
z"/>
<path fill="#000000" opacity="1.000000" stroke="none" 
	d="
M289.468658,513.000000 
	C289.622223,512.335266 290.185852,511.158752 290.875153,511.079803 
	C316.493500,508.146271 340.804291,500.745270 364.175690,489.993042 
	C386.305237,479.812103 406.496521,466.774475 424.908997,450.748169 
	C443.998840,434.132263 460.437622,415.325653 473.954987,394.016937 
	C487.970245,371.923309 498.507721,348.189514 504.867737,322.782593 
	C507.535828,312.124023 508.974182,301.158783 511.034454,290.344940 
	C511.234375,289.295502 511.879913,288.330963 512.659302,287.663513 
	C513.000000,362.926849 513.000000,437.853729 513.000000,513.000000 
	C438.645905,513.000000 364.291626,513.000000 289.468658,513.000000 
z"/>
<path fill="#000000" opacity="1.000000" stroke="none" 
	d="
M225.531342,1.000000 
	C225.205994,1.665928 224.464401,2.835413 223.610352,2.924272 
	C201.233688,5.252421 179.945801,11.518802 159.139236,19.912214 
	C137.471848,28.652887 117.390083,40.199463 99.186111,54.628700 
	C73.815887,74.738220 52.350555,98.493019 35.987453,126.678558 
	C25.885975,144.078400 17.296354,162.152832 12.006033,181.538132 
	C8.269372,195.230347 5.961503,209.311661 2.960801,223.207397 
	C2.770150,224.090271 2.103602,224.870361 1.329224,225.349136 
	C1.000000,150.406128 1.000000,75.812256 1.000000,1.000000 
	C75.687416,1.000000 150.375046,1.000000 225.531342,1.000000 
z"/>
<path fill="#000000" opacity="1.000000" stroke="none" 
	d="
M1.000001,289.468658 
	C1.664721,289.607880 2.850943,290.163300 2.918077,290.831268 
	C4.709854,308.658356 9.150968,325.900665 15.100199,342.697998 
	C24.071280,368.027374 36.309525,391.774109 53.358322,412.627411 
	C63.574589,425.123474 74.448936,437.228241 86.151001,448.323975 
	C99.355804,460.844604 114.437149,471.123444 130.372238,480.109680 
	C146.638275,489.282532 163.517715,497.060608 181.494537,501.961365 
	C195.193634,505.695923 209.274200,508.028412 223.173355,511.038635 
	C224.059937,511.230682 224.845535,511.888977 225.339050,512.665161 
	C150.406296,513.000000 75.812599,513.000000 1.000000,513.000000 
	C1.000000,438.645905 1.000000,364.291626 1.000001,289.468658 
z"/>
<path fill="#FFFFFF" opacity="1.000000" stroke="none" 
	d="
M312.917419,403.907959 
	C312.917389,330.614227 312.918030,257.806885 312.916779,184.999542 
	C312.916656,178.169586 312.907562,178.238922 306.279999,177.893997 
	C301.463623,177.643372 296.649231,177.270203 291.850372,176.788239 
	C284.505524,176.050583 284.170563,175.492233 285.655670,167.210541 
	C308.242157,163.829102 328.175171,150.648376 351.968384,147.884933 
	C351.968384,152.698105 351.968384,156.934357 351.968384,162.279175 
	C354.296906,161.063156 355.673615,160.361801 357.034485,159.630905 
	C391.839233,140.937424 435.156769,143.569702 467.035522,174.056168 
	C479.376526,185.858200 485.884247,201.450134 489.388245,218.009827 
	C494.827271,243.714371 494.732178,269.401031 485.380219,294.236176 
	C473.241943,326.470764 448.486023,343.473633 415.349365,348.811707 
	C397.974243,351.610657 380.484344,351.247131 363.499268,345.601166 
	C359.923767,344.412598 356.482300,342.820679 352.505402,341.224518 
	C352.366089,343.141235 352.173004,344.571136 352.171631,346.001221 
	C352.152130,366.660522 352.288086,387.321167 352.067841,407.978119 
	C352.012390,413.180908 354.292328,416.550476 358.747620,417.843964 
	C364.271851,419.447876 370.058044,420.455841 375.795319,420.910400 
	C379.518738,421.205414 380.148010,422.675385 380.101410,425.853760 
	C380.057037,428.881195 379.841034,430.858215 375.903137,430.839447 
	C347.747223,430.705231 319.590088,430.815613 291.434601,430.640594 
	C289.094788,430.626068 285.372528,431.787292 284.989807,427.181244 
	C284.649719,423.087677 285.236389,420.440399 290.434875,420.927063 
	C293.510406,421.214966 296.727875,420.528961 299.823364,419.963013 
	C310.334137,418.041260 312.916870,414.896576 312.917419,403.907959 
M366.326843,168.742783 
	C362.888306,170.408508 359.455658,172.086502 356.009460,173.736160 
	C353.159424,175.100464 352.077026,177.174591 352.084473,180.478470 
	C352.190918,227.595032 352.197205,274.712006 352.082336,321.828552 
	C352.072968,325.666229 353.501831,327.842194 356.983429,328.803925 
	C364.174286,330.790314 371.288483,333.314392 378.614990,334.501770 
	C402.164581,338.318359 421.595947,331.194153 435.992859,311.643921 
	C446.293182,297.656677 450.420624,281.691772 452.338898,264.681854 
	C455.816284,233.846878 447.024292,206.411072 430.238953,181.136154 
	C421.853912,168.510254 410.189209,161.069550 394.370117,163.190155 
	C385.192474,164.420441 376.149780,166.657242 366.326843,168.742783 
z"/>
<path fill="#FEFEFF" opacity="1.000000" stroke="none" 
	d="
M198.480728,93.565727 
	C202.191818,94.725639 205.521179,95.796242 208.887436,96.734528 
	C212.716324,97.801743 215.816086,96.725143 216.432495,92.575119 
	C217.176422,87.566605 220.716660,89.112404 223.605118,88.849396 
	C227.186035,88.523346 227.029053,91.071938 227.219940,93.430817 
	C228.467697,108.849480 229.771484,124.263756 230.956528,139.687195 
	C231.120682,141.823486 231.959122,144.825882 228.118423,144.710388 
	C225.235092,144.623703 221.991730,146.007782 220.882629,141.026840 
	C216.202957,120.010544 202.112640,107.609520 182.129181,102.122559 
	C148.327637,92.841499 117.313591,104.615784 95.061073,133.855408 
	C78.412003,155.732162 69.675705,180.368591 67.835533,207.692291 
	C65.960045,235.540253 68.404221,262.836792 81.159126,287.977936 
	C96.790459,318.788788 122.022980,335.355164 157.298080,335.204895 
	C170.593643,335.148285 183.414673,332.697754 196.015961,328.616364 
	C199.084366,327.622559 200.118790,326.040649 200.107056,322.863953 
	C200.005356,295.368988 199.966293,267.873047 200.121628,240.378586 
	C200.150970,235.185013 197.256958,232.482391 193.117874,231.322357 
	C187.556900,229.763824 181.773010,228.708206 176.019150,228.234604 
	C172.269409,227.925980 171.762680,226.358475 171.723679,223.230789 
	C171.682953,219.966278 172.859055,218.893265 176.096146,218.902878 
	C205.424240,218.990067 234.752869,218.999695 264.080841,218.894821 
	C267.590912,218.882248 268.235107,220.444504 268.199524,223.445374 
	C268.165619,226.305740 267.793701,227.907684 264.225983,228.216675 
	C258.469574,228.715225 252.693344,229.723450 247.104507,231.195953 
	C242.168793,232.496368 239.679245,235.764343 239.773087,241.515900 
	C240.093842,261.174011 239.282303,280.867615 240.146820,300.492859 
	C240.599869,310.777496 236.194550,317.717804 229.325195,323.850739 
	C210.284561,340.850159 187.745651,349.071289 162.365036,350.031219 
	C141.210281,350.831299 120.300591,349.489868 100.559708,341.180725 
	C58.879356,323.637054 33.202030,292.054718 24.407343,248.183990 
	C16.954449,211.006592 21.791252,174.801544 44.460777,143.189896 
	C67.299881,111.341751 98.533318,92.282524 137.541595,85.768555 
	C158.718582,82.232224 178.571976,85.754631 198.480728,93.565727 
z"/>
<path fill="#ABABFF" opacity="1.000000" stroke="none" 
	d="
M366.686584,168.591949 
	C376.149780,166.657242 385.192474,164.420441 394.370117,163.190155 
	C410.189209,161.069550 421.853912,168.510254 430.238953,181.136154 
	C447.024292,206.411072 455.816284,233.846878 452.338898,264.681854 
	C450.420624,281.691772 446.293182,297.656677 435.992859,311.643921 
	C421.595947,331.194153 402.164581,338.318359 378.614990,334.501770 
	C371.288483,333.314392 364.174286,330.790314 356.983429,328.803925 
	C353.501831,327.842194 352.072968,325.666229 352.082336,321.828552 
	C352.197205,274.712006 352.190918,227.595032 352.084473,180.478470 
	C352.077026,177.174591 353.159424,175.100464 356.009460,173.736160 
	C359.455658,172.086502 362.888306,170.408508 366.686584,168.591949 
z"/>
</svg>